<svg xmlns="http://www.w3.org/2000/svg" width="120" height="40" viewBox="0 0 120 40">
  <path fill="#FF9900" d="M68.14 29.33c-6.51 4.8-15.95 7.36-24.09 7.36-11.39 0-21.67-4.21-29.45-11.2-.61-.55-.06-1.3.67-.87 8.36 4.87 18.7 7.79 29.4 7.79 7.2 0 15.13-1.49 22.42-4.59 1.1-.47 2.02.72 1.04 1.51"/>
  <path fill="#FF9900" d="M70.85 26.28c-.83-1.06-5.49-.5-7.59-.25-.64.07-.73-.48-.16-.88 3.72-2.61 9.81-1.85 10.52-.98.71.88-.19 6.94-3.65 9.83-.53.44-1.04.21-.8-.38.78-1.94 2.52-6.29 1.68-7.33"/>
  <path fill="#000000" d="M63.4 5.56V3.04c0-.38.29-.63.63-.63h11.24c.36 0 .65.26.65.63v2.15c-.01.36-.31.83-.84 1.58l-5.83 8.32c2.17-.06 4.45.27 6.42 1.38.44.25.56.61.6.97v2.69c0 .36-.4.79-.82.57-3.43-1.8-7.99-2-11.78.01-.39.21-.79-.21-.79-.58v-2.69c0-.41.02-1.1.41-1.72l6.75-9.69h-5.88c-.36 0-.65-.25-.65-.63m-40.92 15.09H19.2c-.33-.02-.59-.27-.61-.58V3.61c0-.35.3-.63.66-.63h3.19c.33.01.6.27.63.59v2.3h.06c.83-2.22 2.4-3.26 4.51-3.26 2.14 0 3.49 1.04 4.45 3.26.83-2.22 2.72-3.26 4.74-3.26 1.44 0 3.01.59 3.98 1.93 1.09 1.48.86 3.63.86 5.52l-.01 11.2c0 .35-.3.63-.66.63h-3.42c-.34-.02-.62-.3-.62-.63V12.1c0-.74.06-2.6-.1-3.31-.25-1.19-1.03-1.52-2.02-1.52-.83 0-1.7.56-2.06 1.45-.35.89-.32 2.37-.32 3.38v9.37c0 .35-.3.63-.66.63h-3.42c-.34-.02-.62-.3-.62-.63l-.01-9.37c0-1.97.32-4.86-2.12-4.86-2.47 0-2.38 2.82-2.38 4.86v9.37c0 .35-.3.63-.66.63m72.48-18.52c-5.09 0-5.4 6.94-5.4 11.26 0 4.32-.03 13.6 5.34 13.6s5.57-7.53 5.57-12.1c0-3.01-.13-6.61-.85-9.47-.62-2.48-1.86-3.29-4.66-3.29m0 3.29c2.64 0 2.77 5.92 2.77 9.5 0 5.86-.46 9.89-2.77 9.89-2.27 0-2.67-4.91-2.67-9.89 0-2.22.09-4.86.52-6.94.38-1.85 1.27-2.56 2.15-2.56m14.45 15.23h-3.42c-.34-.02-.62-.3-.62-.63V3.56c.03-.32.31-.56.65-.56h3.18c.3.02.54.21.6.48v2.66h.06c.96-2.4 2.31-3.55 4.68-3.55 1.54 0 3.04.56 4 2.08.9 1.41.9 3.78.9 5.49v11.09c-.03.29-.31.52-.65.52h-3.43c-.31-.02-.57-.25-.61-.55V11.87c0-1.93.23-4.75-2.15-4.75-.83 0-1.6.56-1.98 1.41-.48 1.08-.54 2.15-.54 3.34v9.9c-.01.35-.31.63-.67.63"/>
</svg> 