<svg xmlns="http://www.w3.org/2000/svg" width="120" height="40" viewBox="0 0 64 64">
  <path d="M35 6c2.89 0 5.26.91 7.5 1.86C45.14 9.25 47.16 10 49 10v2c-1.84 0-3.86-.75-6.26-2.11C40.5 8.95 38.13 8 35 8a13.6 13.6 0 0 0-7 2c-1 .67-2 1.31-3 1.81-1 .5-2 .86-3 .86a5.45 5.45 0 0 1-5.5-5.5C16.5 4.61 18.7 2 22 2c1.87 0 3.37.85 4.75 1.64A11.32 11.32 0 0 0 32 5c1.09 0 2.13-.21 3-.56V6zm-4.01 10.37c1.32 0 2.5.18 3.53.51 1.14-1.09 3.01-2.19 5.46-1.96 0 .06 0 .12.01.19.14 5.05-4 7.21-4 7.21-.8 9.48 7.99 12.25 8.01 12.32-1.11 2.53-2.74 5.07-4.87 5.07-2.18 0-2.8-1.33-5.19-1.33-2.53 0-3.12 1.33-5.3 1.33-2.13 0-3.83-2.6-4.87-5.07-.89-1.87-1.66-5.1-1.78-8.13 0 0-.12-2.61 1.65-4.83 1.54-1.94 3.83-2.46 4.83-2.46.66 0 2.53.22 3.53.22-.01-.04-.01-.07-.01-.07zm.01-.01c.07-1.22.38-2.4.89-3.5.8-1.79 2.01-2.86 3.11-2.86s2.32 1.07 3.12 2.86c.51 1.1.83 2.28.9 3.5-1 0-2.96-.35-4.01-.35-1.08 0-2.91.35-4.01.35z"/>
</svg> 