<svg xmlns="http://www.w3.org/2000/svg" width="120" height="40" viewBox="0 0 120 40">
  <path fill="#0668E1" d="M5.466 36.133V22.152h4.733l.705-5.5H5.466v-3.51c0-1.592.44-2.676 2.712-2.676l2.898-.002v-4.92A38.86 38.86 0 0 0 7.055 5.3c-4.9 0-8.254 2.99-8.254 8.478v2.875H-6v5.5h4.799v13.98h6.667"/>
  <path fill="#0668E1" d="M40.415 18.594c-1.688-1.757-4.692-2.637-8.88-2.637H21.562v20.176h4.988V28.04h4.92c3.55 0 6.368-.782 8.296-2.324 1.883-1.507 2.84-3.571 2.84-6.15 0-3.352-1.387-5.514-2.19-6.972zm-5.26 4.812c-.654.552-1.564.831-2.702.831h-5.903v-5.175h5.903c1.138 0 2.048.282 2.702.844.654.564.982 1.325.982 2.274 0 .861-.327 1.664-.982 2.226zm19.997 2.215v10.512h-4.963V9.981h9.474c2.18 0 4.046.265 5.509.786 1.421.51 2.633 1.34 3.6 2.468a6.147 6.147 0 0 1 1.36 4.001c0 2.144-.736 3.85-2.223 5.087-1.492 1.233-3.594 1.854-6.247 1.854h-6.51v-.001zm0-3.8h4.511c1.086 0 1.905-.254 2.45-.76.55-.51.82-1.202.82-2.068 0-.902-.27-1.634-.82-2.18-.546-.548-1.364-.827-2.45-.827h-4.511v5.835zm27.536 3.8v10.512h-4.963V9.981h9.474c2.18 0 4.045.265 5.508.786 1.421.51 2.634 1.34 3.6 2.468a6.148 6.148 0 0 1 1.361 4.001c0 2.144-.736 3.85-2.223 5.087-1.492 1.233-3.595 1.854-6.247 1.854h-6.51v-.001zm0-3.8h4.512c1.085 0 1.903-.254 2.449-.76.549-.51.82-1.202.82-2.068 0-.902-.271-1.634-.82-2.18-.546-.548-1.364-.827-2.45-.827h-4.511v5.835zm34.6 14.312h-4.64l-8.809-11.51v11.51h-4.963V9.98h4.963l8.487 11.089V9.98h4.962v23.152"/>
  <path fill="#0668E1" d="M124.208 23.043c0 2.5-.437 4.693-1.298 6.581-.86 1.887-2.122 3.35-3.776 4.393-1.656 1.04-3.609 1.557-5.856 1.557-2.258 0-4.226-.526-5.901-1.58-1.674-1.051-2.951-2.537-3.82-4.458-.871-1.92-1.328-4.132-1.373-6.649v-1.29c0-2.522.433-4.728 1.298-6.627.865-1.895 2.136-3.358 3.797-4.392 1.666-1.03 3.628-1.55 5.887-1.55 2.234 0 4.182.523 5.843 1.557 1.665 1.034 2.936 2.501 3.809 4.404.868 1.9 1.307 4.117 1.318 6.65v1.404h.072zm-5.034-1.267c0-2.93-.517-5.154-1.546-6.674-1.033-1.52-2.505-2.278-4.415-2.278-1.874 0-3.334.763-4.38 2.29-1.046 1.528-1.586 3.734-1.62 6.617v1.312c0 2.872.53 5.092 1.587 6.65 1.058 1.56 2.539 2.347 4.435 2.347 1.9 0 3.359-.753 4.382-2.256 1.023-1.504 1.545-3.712 1.557-6.617v-1.391z"/>
</svg> 