<svg xmlns="http://www.w3.org/2000/svg" width="120" height="40" viewBox="0 0 60 20">
  <path fill="#f25022" d="M0 0h9v9H0z"/>
  <path fill="#7fba00" d="M10 0h9v9h-9z"/>
  <path fill="#00a4ef" d="M0 10h9v9H0z"/>
  <path fill="#ffb900" d="M10 10h9v9h-9z"/>
  <path fill="#737373" d="M23 8.5h2v-6h3V1H20v1.5h3v6zm4.5 0h1.8l.4-1.5h2.1l.4 1.5h1.8L31.4 1h-1.9l-2 7.5zm2.5-2.8l.6-2.6.7 2.6h-1.3zM36 8.5h2.8c1.3 0 1.9-.3 2.4-.8.6-.5.9-1.4.9-2.4 0-1.6-.7-2.4-1.5-2.8-.5-.3-1.1-.4-2.2-.4h-2.3v6.4zm1.6-5h.6c1.3 0 2 .5 2 2.1 0 1.3-.5 1.8-1.6 1.8h-1V3.5z"/>
</svg> 