<svg xmlns="http://www.w3.org/2000/svg" width="120" height="40" viewBox="0 0 120 40">
  <path d="M 16.146 1.469 C 16.146 1.469 16.146 34.224 16.146 34.224 C 16.146 34.224 23.211 34.224 23.211 34.224 C 23.211 34.224 23.211 1.469 23.211 1.469 C 23.211 1.469 16.146 1.469 16.146 1.469 Z" fill="#E50914"/>
  <path d="M 32.099 1.469 C 32.099 1.469 32.099 34.224 32.099 34.224 C 32.099 34.224 39.171 34.224 39.171 34.224 C 39.171 34.224 39.171 1.469 39.171 1.469 C 39.171 1.469 32.099 1.469 32.099 1.469 Z" fill="#E50914"/>
  <path d="M 23.211 1.469 C 23.211 1.469 23.211 34.224 23.211 34.224 C 27.752 34.224 32.099 34.224 32.099 34.224 C 32.099 23.38 32.099 12.318 32.099 1.474 C 27.558 1.474 23.211 1.469 23.211 1.469 Z" fill="#E50914"/>
  <path d="M 39.171 1.469 C 39.171 8.573 39.171 34.13 39.171 34.13 C 43.729 34.13 48.074 34.13 48.074 34.13 C 48.074 27.026 48.074 1.469 48.074 1.469 C 43.516 1.469 39.171 1.469 39.171 1.469 Z" fill="#E50914"/>
  <path d="M 48.074 1.469 C 48.074 1.469 48.074 34.13 48.074 34.13 C 51.042 34.13 54.115 34.13 54.115 34.13 C 60.047 23.016 66.039 12.036 72.027 1.469 C 72.027 1.469 63.905 1.469 63.905 1.469 C 59.156 10.307 54.068 19.615 48.074 29.078 C 48.074 19.875 48.074 10.667 48.074 1.469 Z" fill="#E50914"/>
  <path d="M 72.027 1.469 C 72.027 12.411 72.027 23.38 72.027 34.13 C 75.63 34.13 79.073 34.13 79.073 34.13 C 79.073 23.193 79.073 12.224 79.073 1.469 C 75.47 1.469 72.027 1.469 72.027 1.469 Z" fill="#E50914"/>
  <path d="M 79.073 1.469 C 79.073 1.469 79.073 34.13 79.073 34.13 C 82.667 34.13 86.13 34.13 86.13 34.13 C 86.13 23.193 86.13 12.224 86.13 1.469 C 82.536 1.469 79.073 1.469 79.073 1.469 Z" fill="#E50914"/>
  <path d="M 86.13 1.469 C 86.13 12.411 86.13 23.38 86.13 34.13 C 89.734 34.13 93.187 34.13 93.187 34.13 C 93.187 23.193 93.187 12.224 93.187 1.469 C 89.583 1.469 86.13 1.469 86.13 1.469 Z" fill="#E50914"/>
  <path d="M 100.244 12.557 C 100.244 12.557 100.244 1.469 100.244 1.469 C 97.891 1.469 95.516 1.469 93.187 1.469 C 93.187 12.406 93.187 23.38 93.187 34.13 C 96.896 34.13 100.244 34.13 100.244 34.13 C 100.244 29.104 100.244 24.083 100.244 19.052 C 102.349 19.052 104.323 19.052 107.291 19.052 C 107.291 16.234 107.291 13.677 107.291 10.859 C 104.432 10.859 102.349 10.859 100.244 10.859 C 100.244 11.448 100.244 11.974 100.244 12.557 Z" fill="#E50914"/>
</svg> 