<svg xmlns="http://www.w3.org/2000/svg" width="120" height="40" viewBox="0 0 120 40">
  <path fill="#00A1E0" d="M36.79 21.63c.87-.91 2.08-1.48 3.44-1.48 1.46 0 2.78.68 3.65 1.73.81-.36 1.72-.56 2.69-.56 3.75 0 6.78 3.04 6.78 6.78 0 3.74-3.03 6.78-6.78 6.78-.45 0-.88-.05-1.3-.13-.67 1.23-1.97 2.06-3.47 2.06-.69 0-1.34-.18-1.91-.49-.67 2.02-2.54 3.48-4.76 3.48-2.22 0-4.1-1.46-4.76-3.47-.4.13-.82.2-1.25.2-2.23 0-4.03-1.8-4.03-4.03 0-1.34.66-2.53 1.67-3.27-.38-.7-.6-1.5-.6-2.35 0-2.75 2.23-4.99 4.98-4.99 1.87 0 3.5 1.03 4.35 2.55l-.05-.06z"/>
  <path fill="#00A1E0" d="M43.25 22.3C41.4 22.3 39.9 20.8 39.9 18.94c0-1.87 1.5-3.38 3.37-3.38 1.85 0 3.36 1.51 3.36 3.38 0 1.86-1.51 3.37-3.37 3.37h-.01zM31.38 23.03c-1.85 0-3.36-1.51-3.36-3.38 0-1.86 1.51-3.37 3.36-3.37 1.86 0 3.37 1.51 3.37 3.37 0 1.87-1.51 3.38-3.37 3.38zM49.45 30.2c-1.06 0-1.92-.86-1.92-1.92 0-1.06.86-1.92 1.92-1.92 1.06 0 1.93.86 1.93 1.92 0 1.06-.87 1.92-1.93 1.92zM36.05 34.16c-1.51 0-2.73-1.22-2.73-2.73 0-1.5 1.22-2.73 2.73-2.73s2.73 1.22 2.73 2.73-1.22 2.73-2.73 2.73zM43.51 33.09c-1.06 0-1.92-.87-1.92-1.93s.86-1.92 1.92-1.92c1.06 0 1.93.86 1.93 1.92s-.87 1.93-1.93 1.93zM27.98 30.85c-1.68 0-3.04-1.37-3.04-3.04 0-1.68 1.36-3.04 3.04-3.04s3.04 1.36 3.04 3.04c0 1.67-1.36 3.04-3.04 3.04z"/>
</svg> 